<?xml version="1.0" encoding="utf-8" ?><!-- created by svgstack.com | Attribution is required. --><svg xmlns="http://www.w3.org/2000/svg" xmlns:xlink="http://www.w3.org/1999/xlink" width="1024" height="1024"><path transform="scale(2 2)" d="M132.625 132.501C226.463 133.079 322.247 143.504 415.07 156.217L428.226 158.075C430.922 158.469 433.757 158.749 436.377 159.503C452.47 164.134 447.975 187.065 446.829 199.381C442.891 241.694 436.278 284.284 426.502 325.612C423.816 336.963 421.164 349.087 416.422 359.791C409.092 376.338 395.46 374.586 379.594 374.576C351.35 374.364 323.035 371.58 294.907 369.242C233.92 364.174 173.086 357.032 112.603 347.709L90.5577 344.262C86.9323 343.68 83.013 343.336 79.4986 342.307C57.4505 335.856 64.0791 288.454 65.6801 272.07C68.8153 239.983 74.8116 208.038 80.9172 176.415C82.1819 169.864 86.6786 142.637 90.368 138.17C94.0541 133.707 125.203 132.888 132.625 132.501ZM108.443 144.996C112.892 157.411 118.269 169.421 125.857 180.245C129.259 186.113 133.542 191.834 137.832 197.085C150.155 217.752 214.001 275.439 229.484 278.15C242.517 280.432 267.863 267.66 280.405 262.393C318.235 246.506 356.292 231.017 391.108 209.083C407.863 198.528 421.611 187.374 437.435 176.428C436.839 174.178 436.286 171.589 434.274 170.154C431.5 168.175 361.413 159.834 351.384 158.662C296.541 152.252 241.549 147.17 186.39 144.525C164.075 143.455 130.548 141.162 108.443 144.996ZM436.56 189.854C435.861 190.56 435.2 191.313 434.524 192.041C434.41 196.631 433.19 201.25 432.359 205.752C426.375 238.145 419.462 270.249 411.526 302.209C408.023 316.315 405.221 335.603 395.634 347.077C394.739 350.281 393.168 351.375 390.257 352.448C383.877 349.96 380.072 338.709 376.099 333.232C360.664 308.356 336.936 280.891 318.104 258.406C304.362 264.876 248.982 288.745 237.572 289.342C215.529 290.496 191.888 267.062 176.54 253.184C150.257 276.14 121.874 296.388 96.6505 320.606C92.6268 324.469 88.78 328.516 84.7831 332.408C89.1938 334.028 95.0188 334.368 99.7361 335.079L127.186 339.183C180.099 347.093 233.241 353.121 286.528 357.839L332.59 361.51C350.425 362.809 368.371 363.966 386.257 364.123C404.116 364.281 404.811 362.213 409.914 346.163C423.377 303.827 431.15 248.055 435.571 203.847C436.035 199.209 436.626 194.52 436.56 189.854ZM98.0861 147.885C96.4647 152.292 95.7721 156.979 94.7875 161.558C85.9668 202.567 68.9656 284.901 77.0773 326.468C84.416 316.056 102.459 300.243 112.138 292.205C124.944 281.264 155.102 255.282 169.989 247.745C166.649 243.774 162.589 240.29 158.849 236.694C134.218 213.013 112.018 184.585 99.9806 152.299C99.5625 151.178 99.0436 148.455 98.0861 147.885ZM328.209 254.024C337.848 266.388 350.437 279.252 358.851 292.205C357.93 276.985 339.132 264.116 330.496 253.184L328.209 254.024Z"/><path fill="#FECA04" transform="scale(2 2)" d="M330.496 253.184C334.256 250.768 339.941 248.686 344.091 246.753C376.35 231.73 406.029 213.202 434.524 192.041C434.41 196.631 433.19 201.25 432.359 205.752C426.375 238.145 419.462 270.249 411.526 302.209C408.023 316.315 405.221 335.603 395.634 347.077C395.072 339.065 363.719 296.785 358.851 292.205C357.93 276.985 339.132 264.116 330.496 253.184Z"/><path transform="scale(2 2)" d="M92.9204 256.748C100.577 256.91 100.605 274.542 92.9204 277.273C83.5432 277.252 86.7091 262.766 89.1303 258.727C89.9023 257.439 91.5782 257.143 92.9204 256.748Z"/><path transform="scale(2 2)" d="M105.22 193.306C115.12 191.869 110.775 201.881 109.003 207.079C106.149 215.451 104.276 224.367 102.499 233.013C101.527 237.74 102.314 245.845 96.7175 247.745C94.0347 247.86 91.6714 247.248 90.5935 244.522C89.1612 240.899 97.2118 196.565 105.22 193.306Z"/><path fill="#FECA04" transform="scale(2 2)" d="M212.73 335.016C216.745 334.395 220.894 334.371 224.947 334.175C245.047 333.204 265.062 330.773 285.157 329.8C313.1 328.447 342.193 326.155 369.769 331.758C371.902 332.191 373.923 332.983 376.099 333.232C380.072 338.709 383.877 349.96 390.257 352.448C378.554 357.381 356.924 354.044 344.495 352.841C308.394 349.347 272.37 344.974 236.577 339.073C228.632 337.763 220.581 336.841 212.73 335.016Z"/><path transform="scale(2 2)" d="M163.776 214.477C167.664 214.917 172.051 213.728 175.971 213.569C183.181 213.275 190.294 213.825 197.465 214.477C216.553 217.85 235.241 222.007 253.744 227.778C259.425 229.55 265.019 231.461 270.783 232.963C254.962 233.198 224.153 224.253 205.707 222.157C197.576 220.673 172.876 216.329 165.478 216.346C163.107 216.116 157.859 216.258 163.776 214.477Z"/><path transform="scale(2 2)" d="M166.254 180.245C194.049 180.213 217.26 183.66 244.37 191.162C248.067 192.185 254.357 193.453 257.472 195.106L257.61 195.349C254.55 195.101 251.441 194.147 248.401 193.629C222.607 189.228 198.295 189.401 173.416 186.081C170.945 186.353 168.291 186.082 165.811 185.958L153.432 185.342C146.503 185.054 139.557 185.281 132.625 185.217C143.418 182.03 155.076 181.146 166.254 180.245Z"/><path fill="#FECA04" transform="scale(2 2)" d="M165.478 216.346C172.876 216.329 197.576 220.673 205.707 222.157C210.57 227.363 233.485 252.098 229.349 256.34C223.637 262.197 183.558 230.213 176.611 224.975C172.881 222.163 168.767 219.679 165.478 216.346Z"/><path fill="#FECA04" transform="scale(2 2)" d="M132.625 147.885C139.449 149.815 161.165 173.553 166.254 180.245C155.076 181.146 143.418 182.03 132.625 185.217C139.557 185.281 146.503 185.054 153.432 185.342L165.811 185.958C168.291 186.082 170.945 186.353 173.416 186.081L173.086 186.403C173.965 188.78 177.127 191.379 178.866 193.28L190.781 206.549C193.008 209.044 195.729 211.632 197.465 214.477C190.294 213.825 183.181 213.275 175.971 213.569C172.051 213.728 167.664 214.917 163.776 214.477C158.248 212.051 140.099 197.469 137.832 197.085C133.542 191.834 129.259 186.113 125.857 180.245C125.964 171.14 119.208 150.653 132.625 147.885Z"/></svg> 